<svg height="512" viewBox="0 0 128 128" width="512" xmlns="http://www.w3.org/2000/svg"><path d="m23.381 69 5.554 27.252a13.01 13.01 0 0 0 12.707 10.378h44.148a13.012 13.012 0 0 0 12.71-10.375l5.537-27.161a13.19 13.19 0 0 0 -.068-25.464c-6.852-13.553-22.487-22.263-40.109-22.263s-33.26 8.71-40.106 22.264a13.188 13.188 0 0 0 -.373 25.369zm71.686 26.556a9.5 9.5 0 0 1 -9.277 7.577h-44.148a9.5 9.5 0 0 1 -9.278-7.577l-5.3-26h.105a13.022 13.022 0 0 0 9.172-3.718 13.175 13.175 0 0 0 18.346 0 13.172 13.172 0 0 0 18.344 0 13.175 13.175 0 0 0 18.346 0 13 13 0 0 0 8.991 3.709zm-69.767-48.694a1.752 1.752 0 0 0 1.242-.966c6.058-12.775 20.711-21.029 37.318-21.029s31.255 8.254 37.318 21.033a1.75 1.75 0 0 0 1.242.966 9.69 9.69 0 0 1 -.163 19.048 10.52 10.52 0 0 1 -1.707.147 9.571 9.571 0 0 1 -7.763-3.913 1.752 1.752 0 0 0 -1.405-.709 1.747 1.747 0 0 0 -1.4.7 9.668 9.668 0 0 1 -15.543 0 1.749 1.749 0 0 0 -1.4-.7 1.75 1.75 0 0 0 -1.4.709 9.658 9.658 0 0 1 -15.527 0 1.751 1.751 0 0 0 -1.4-.709 1.749 1.749 0 0 0 -1.4.7 9.668 9.668 0 0 1 -15.543 0 1.749 1.749 0 0 0 -1.4-.7 1.75 1.75 0 0 0 -1.4.709 9.574 9.574 0 0 1 -7.764 3.913 9.162 9.162 0 0 1 -1.949-.2 9.685 9.685 0 0 1 .08-18.993z"/><path d="m64 74a1.751 1.751 0 0 0 -1.75 1.75v18.833a1.75 1.75 0 0 0 3.5 0v-18.833a1.751 1.751 0 0 0 -1.75-1.75z"/><path d="m52.569 75.505a1.75 1.75 0 1 0 -3.469.495l2.663 18.834a1.75 1.75 0 0 0 1.731 1.5 1.729 1.729 0 0 0 .247-.017 1.75 1.75 0 0 0 1.488-1.978z"/><path d="m40.468 75.406a1.75 1.75 0 0 0 -3.432.688l3.779 18.834a1.751 1.751 0 0 0 1.714 1.406 1.707 1.707 0 0 0 .346-.035 1.75 1.75 0 0 0 1.372-2.06z"/><path d="m77.269 74.017a1.749 1.749 0 0 0 -1.978 1.488l-2.664 18.833a1.75 1.75 0 0 0 1.488 1.978 1.719 1.719 0 0 0 .247.017 1.75 1.75 0 0 0 1.731-1.5l2.663-18.833a1.749 1.749 0 0 0 -1.487-1.983z"/><path d="m89.453 74.034a1.75 1.75 0 0 0 -2.06 1.372l-3.779 18.833a1.75 1.75 0 0 0 1.371 2.06 1.717 1.717 0 0 0 .347.035 1.751 1.751 0 0 0 1.713-1.406l3.779-18.834a1.75 1.75 0 0 0 -1.371-2.06z"/></svg>