<svg id="Capa_1" enable-background="new 0 0 512 512" height="512" viewBox="0 0 512 512" width="512" xmlns="http://www.w3.org/2000/svg"><path d="m422.5 76.218h-47.333v-61.21c0-9.941-9.513-17.13-19.065-14.438l-270.667 76.21c-6.447 1.815-10.935 7.737-10.935 14.438v405.782c0 8.284 6.716 15 15 15h333c8.284 0 15-6.716 15-15v-405.782c0-8.284-6.716-15-15-15zm-77.333-41.404v41.404h-147.05zm62.333 71.404v144.955h-49.176v-35.416c0-11.541-12.523-18.751-22.5-12.99l-79.824 46.085-79.824-46.086c-9.995-5.771-22.5 1.469-22.5 12.99v35.416l-49.176-.001v-144.953zm-79.176 135.519v48.871l-42.324-24.436zm-102.324 24.435-42.324 24.435v-48.871zm-121.5 215.828v-200.825l49.176-.003v35.416c0 11.528 12.519 18.753 22.5 12.99l25.906-14.957c-7.482 17.052-12.385 37.025-10.705 58.985.632 8.273 7.854 14.444 16.1 13.812 8.261-.632 14.444-7.84 13.813-16.1-2.864-37.443 20.825-69.035 34.711-84.128 13.886 15.093 37.575 46.684 34.711 84.128-.663 8.667 6.174 16.144 14.972 16.144 7.765 0 14.339-5.986 14.94-13.856 1.68-21.959-3.223-41.933-10.705-58.985l25.906 14.957c9.971 5.758 22.5-1.453 22.5-12.99v-35.416h49.175v200.828z"/></svg>