<?xml version="1.0" encoding="iso-8859-1"?>
<!-- Generator: Adobe Illustrator 19.0.0, SVG Export Plug-In . SVG Version: 6.00 Build 0)  -->
<svg version="1.1" id="Capa_1" xmlns="http://www.w3.org/2000/svg" xmlns:xlink="http://www.w3.org/1999/xlink" x="0px" y="0px"
	 viewBox="0 0 480 480" style="enable-background:new 0 0 480 480;" xml:space="preserve">
<g>
	<g>
		<path d="M384,0H96C73.944,0,56,17.944,56,40v400c0,22.056,17.944,40,40,40h288c22.056,0,40-17.944,40-40V40
			C424,17.944,406.056,0,384,0z M408,440c0,13.232-10.768,24-24,24H96c-13.232,0-24-10.768-24-24V40c0-13.232,10.768-24,24-24h288
			c13.232,0,24,10.768,24,24V440z"/>
	</g>
</g>
<g>
	<g>
		<path d="M349.976,258.688L297.816,200H328c3.144,0,5.992-1.832,7.288-4.696c1.296-2.856,0.8-6.208-1.264-8.576L289.632,136H304
			c3.152,0,6.008-1.848,7.296-4.72c1.296-2.872,0.776-6.24-1.32-8.592l-64-72c-3.04-3.416-8.92-3.416-11.96,0l-64,72
			c-2.088,2.352-2.608,5.712-1.312,8.592c1.288,2.872,4.144,4.72,7.296,4.72h14.368l-44.392,50.728
			c-2.064,2.36-2.56,5.72-1.264,8.576c1.296,2.864,4.144,4.696,7.288,4.696h30.184l-52.168,58.68
			c-2.088,2.352-2.608,5.72-1.32,8.592c1.296,2.88,4.152,4.728,7.304,4.728h72v48h-72v16h80h48h56v-16h-48v-48h72
			c3.152,0,6.008-1.848,7.296-4.72C352.592,264.408,352.072,261.04,349.976,258.688z M256,320h-32v-48h32V320z M272,256h-8h-48h-8
			h-54.184l52.168-58.68c2.088-2.352,2.608-5.72,1.32-8.592c-1.296-2.88-4.152-4.728-7.304-4.728h-30.368l44.392-50.728
			c2.064-2.36,2.56-5.72,1.264-8.576C213.992,121.832,211.144,120,208,120h-14.184L240,68.04L286.184,120H272
			c-3.144,0-5.992,1.832-7.288,4.696c-1.296,2.856-0.8,6.208,1.264,8.576L310.368,184H280c-3.152,0-6.008,1.848-7.296,4.72
			c-1.296,2.872-0.776,6.24,1.32,8.592L326.184,256H272z"/>
	</g>
</g>
<g>
	<g>
		<path d="M353.616,416l13.04-19.56c1.64-2.456,1.792-5.608,0.4-8.216c-1.392-2.6-4.104-4.224-7.056-4.224h-40v-16
			c0-4.416-3.584-8-8-8H168c-4.416,0-8,3.584-8,8v16h-40c-2.952,0-5.664,1.624-7.056,4.224c-1.392,2.6-1.24,5.76,0.4,8.208
			L126.384,416l-13.04,19.56c-1.64,2.456-1.792,5.608-0.4,8.208c1.392,2.608,4.104,4.232,7.056,4.232h72c4.416,0,8-3.584,8-8v-16h80
			v16c0,4.416,3.584,8,8,8h72c2.952,0,5.664-1.624,7.056-4.224c1.392-2.6,1.24-5.76-0.4-8.208L353.616,416z M184,432h-49.048
			l7.704-11.56c1.792-2.688,1.792-6.184,0-8.872L134.952,400H160v16c0,4.416,3.584,8,8,8h16V432z M176,408v-32h128v32H176z
			 M337.344,420.44l7.704,11.56H296v-8h16c4.416,0,8-3.584,8-8v-16h25.048l-7.704,11.56
			C335.552,414.248,335.552,417.752,337.344,420.44z"/>
	</g>
</g>
<g>
	<g>
		<rect x="336" y="320" width="16" height="16"/>
	</g>
</g>
<g>
	<g>
		<rect x="368" y="320" width="16" height="16"/>
	</g>
</g>
<g>
	<g>
		<polygon points="128,96 128,80 112,80 112,96 96,96 96,112 112,112 112,128 128,128 128,112 144,112 144,96 		"/>
	</g>
</g>
<g>
	<g>
		<polygon points="176,56 176,40 160,40 160,56 144,56 144,72 160,72 160,88 176,88 176,72 192,72 192,56 		"/>
	</g>
</g>
<g>
	<g>
		<rect x="104" y="320" width="16" height="16"/>
	</g>
</g>
<g>
	<g>
		<rect x="200" y="224" width="16" height="16"/>
	</g>
</g>
<g>
	<g>
		<rect x="256" y="216" width="16" height="16"/>
	</g>
</g>
<g>
	<g>
		<rect x="248" y="152" width="16" height="16"/>
	</g>
</g>
<g>
	<g>
		<rect x="208" y="160" width="16" height="16"/>
	</g>
</g>
<g>
	<g>
		<rect x="232" y="104" width="16" height="16"/>
	</g>
</g>
<g>
	<g>
		<rect x="224" y="192" width="16" height="16"/>
	</g>
</g>
<g>
</g>
<g>
</g>
<g>
</g>
<g>
</g>
<g>
</g>
<g>
</g>
<g>
</g>
<g>
</g>
<g>
</g>
<g>
</g>
<g>
</g>
<g>
</g>
<g>
</g>
<g>
</g>
<g>
</g>
</svg>
